HIERARCHY
ROOT Hips
{
	OFFSET 0.000000 0.000000 0.000000
	CHANNELS 6 Xposition Yposition Zposition Zrotation Xrotation Yrotation
	JOINT RightUpLeg
	{
		OFFSET -10.032200 0.000000 0.000000
		CHANNELS 3 Zrotation Xrotation Yrotation
		JOINT RightLeg
		{
			OFFSET 0.000000 -40.977000 0.000000
			CHANNELS 3 Zrotation Xrotation Yrotation
			JOINT RightFoot
			{
				OFFSET 0.000000 -38.933200 0.000000
				CHANNELS 3 Zrotation Xrotation Yrotation
				JOINT RightToe
				{
					OFFSET 0.000000 -1.977400 9.184000
					CHANNELS 3 Zrotation Xrotation Yrotation
					JOINT RightToeEnd
					{
						OFFSET 0.000000 2.335600 6.099100
						CHANNELS 3 Zrotation Xrotation Yrotation
						End Site
						{
						    OFFSET 0.000000 1.788000 4.669400
						}
					}
				}
			}
		}
	}
	JOINT LeftUpLeg
	{
		OFFSET 10.032200 0.000000 0.000000
		CHANNELS 3 Zrotation Xrotation Yrotation
		JOINT LeftLeg
		{
			OFFSET 0.000000 -40.977000 0.000000
			CHANNELS 3 Zrotation Xrotation Yrotation
			JOINT LeftFoot
			{
				OFFSET 0.000000 -38.933200 0.000000
				CHANNELS 3 Zrotation Xrotation Yrotation
				JOINT LeftToe
				{
					OFFSET 0.000000 -1.977400 9.184000
					CHANNELS 3 Zrotation Xrotation Yrotation
					JOINT LeftToeEnd
					{
						OFFSET 0.000000 2.335600 6.099100
						CHANNELS 3 Zrotation Xrotation Yrotation
						End Site
						{
						    OFFSET 0.000000 1.788000 4.669400
						}
					}
				}
			}
		}
	}
	JOINT Spine
	{
		OFFSET 0.000000 16.960900 0.000000
		CHANNELS 3 Zrotation Xrotation Yrotation
		JOINT Spine1
		{
			OFFSET 0.000000 13.413900 0.000000
			CHANNELS 3 Zrotation Xrotation Yrotation
			JOINT Spine2
			{
				OFFSET 0.000000 10.384400 0.000000
				CHANNELS 3 Zrotation Xrotation Yrotation
				JOINT LeftShoulder
				{
					OFFSET 2.000000 10.384400 0.000000
					CHANNELS 3 Zrotation Xrotation Yrotation
					JOINT LeftArm
					{
						OFFSET 15.649100 0.000000 0.000000
						CHANNELS 3 Zrotation Xrotation Yrotation
						JOINT LeftForeArm
						{
							OFFSET 0.000000 -26.641600 0.000000
							CHANNELS 3 Zrotation Xrotation Yrotation
							JOINT LeftHand
							{
								OFFSET 0.000000 -23.740600 0.000000
								CHANNELS 3 Zrotation Xrotation Yrotation
								JOINT LeftFinger0
								{
									OFFSET 0.000000 -7.620900 0.000000
									CHANNELS 3 Zrotation Xrotation Yrotation
									End Site
									{
									    OFFSET 0.000000 -5.000000 0.000000
									}
								}
							}
						}
					}
				}
				JOINT RightShoulder
				{
					OFFSET -2.000000 10.384400 0.000000
					CHANNELS 3 Zrotation Xrotation Yrotation
					JOINT RightArm
					{
						OFFSET -15.649100 0.000000 0.000000
						CHANNELS 3 Zrotation Xrotation Yrotation
						JOINT RightForeArm
						{
							OFFSET 0.000000 -26.641600 0.000000
							CHANNELS 3 Zrotation Xrotation Yrotation
							JOINT RightHand
							{
								OFFSET 0.000000 -23.740600 0.000000
								CHANNELS 3 Zrotation Xrotation Yrotation
								JOINT RightFinger0
								{
									OFFSET 0.000000 -7.620900 0.000000
									CHANNELS 3 Zrotation Xrotation Yrotation
									End Site
									{
									    OFFSET 0.000000 -5.000000 0.000000
									}
								}
							}
						}
					}
				}
				JOINT Neck
				{
					OFFSET 0.000000 10.384400 0.000000
					CHANNELS 3 Zrotation Xrotation Yrotation
					JOINT Head
					{
						OFFSET 0.000000 10.146900 0.000000
						CHANNELS 3 Zrotation Xrotation Yrotation
						JOINT HeadTip
						{
							OFFSET 0.000000 10.000000 0.000000
							CHANNELS 3 Zrotation Xrotation Yrotation
							End Site
							{
							    OFFSET 0.000000 5.000000 0.000000
							}
						}
					}
				}
			}
		}
	}
}
MOTION
Frames:	13
Frame Time:	0.033332
67.292400 86.741900 -26.197500 -1.440266 -2.431493 -4.437320 -1.238096 -2.600429 -23.279413 0.000000 10.621641 0.000000 4.145307 13.118781 -1.582960 -0.000000 -0.551338 -0.000000 0.000000 0.000000 -0.000000 0.591258 -2.650401 24.321045 0.000000 10.262798 -0.000000 -0.105479 13.391653 -3.874047 -0.000000 -1.915680 -0.000000 -0.000000 0.000000 -0.000000 1.974635 0.330572 0.194739 0.000000 2.678131 -0.000000 -0.000000 0.000000 0.000000 3.657026 -0.000000 2.273062 91.375814 -8.082150 9.726122 0.000000 -13.012013 -0.000000 -0.940312 7.560798 -17.010674 -0.000000 0.000000 -0.000000 -5.466942 -0.000000 -1.611427 -90.386157 -11.327588 -10.944302 -0.000023 -8.560417 -0.000002 -1.598560 17.811748 24.005836 -0.000000 -0.000000 -0.000000 -0.000000 0.000000 0.000000 -2.716046 5.447956 2.783519 -0.000000 0.000000 -0.000000 
67.283000 86.745300 -26.165600 -1.438823 -2.447548 -4.491290 -1.238444 -2.576916 -23.237681 0.000000 10.639925 -0.000000 4.166523 13.107402 -1.564568 0.000000 -0.571636 -0.000000 -0.000000 0.000000 -0.000000 0.602632 -2.619780 24.398996 0.000000 10.292399 -0.000000 -0.096647 13.384300 -3.896978 -0.000000 -1.953804 -0.000000 -0.000000 0.000000 -0.000000 1.986696 0.299149 0.229626 -0.000000 2.676796 -0.000000 -0.000000 0.000000 -0.000000 3.778395 0.000000 2.297556 91.502914 -8.016658 9.608943 -0.000000 -12.715380 0.000000 -0.970425 7.654390 -17.042562 -0.000000 0.000000 -0.000000 -5.620005 0.000000 -1.554627 -90.527840 -11.286238 -11.142084 -0.000022 -8.206617 -0.000002 -1.370862 17.855444 23.702140 0.000000 0.000000 -0.000000 -0.000000 0.000000 -0.000000 -2.761329 5.454325 2.788599 -0.000000 0.000000 0.000000 
67.274800 86.743100 -26.144400 -1.443048 -2.462546 -4.542618 -1.235998 -2.567301 -23.230906 -0.000000 10.668198 -0.000000 4.131507 13.090727 -1.536614 0.000000 -0.562197 -0.000000 0.000000 -0.000000 -0.000000 0.611927 -2.594032 24.380069 0.000000 10.323167 -0.000000 -0.065235 13.303907 -3.815664 -0.000000 -1.871188 -0.000000 0.000000 0.000000 -0.000000 2.004284 0.282388 0.277016 0.000000 2.679677 -0.000000 0.000000 -0.000000 -0.000000 3.855060 -0.000000 2.263268 91.611156 -7.902228 9.339289 -0.000000 -12.480138 -0.000000 -0.986979 7.637344 -17.038021 0.000000 0.000000 0.000000 -5.641420 -0.000000 -1.434764 -90.710758 -11.136893 -11.404413 -0.000021 -7.989052 -0.000001 -1.395927 17.912806 23.293227 -0.000000 -0.000000 -0.000000 0.000000 -0.000000 -0.000000 -2.753860 5.379086 2.846106 0.000000 -0.000000 -0.000000 
67.267100 86.743500 -26.131200 -1.442263 -2.471466 -4.574082 -1.243287 -2.566859 -23.188789 -0.000000 10.703935 -0.000000 4.179849 13.062813 -1.531088 0.000000 -0.541165 -0.000000 -0.000000 -0.000000 -0.000000 0.614793 -2.572734 24.409474 -0.000000 10.321037 -0.000000 -0.095076 13.313874 -3.815270 -0.000000 -1.900004 -0.000000 -0.000000 0.000000 -0.000000 2.017656 0.273788 0.312323 0.000000 2.679445 0.000000 -0.000000 -0.000000 -0.000000 3.925145 0.000000 2.235878 91.627685 -7.797818 9.066482 0.000000 -12.406715 -0.000000 -0.998445 7.666288 -17.196259 0.000000 0.000000 0.000000 -5.589837 -0.000000 -1.344257 -90.867302 -11.018852 -11.826033 -0.000021 -7.858881 -0.000001 -1.620325 17.896910 22.757940 -0.000000 0.000000 -0.000000 -0.000000 -0.000000 -0.000000 -2.786136 5.308179 2.980653 -0.000000 0.000000 -0.000000 
67.260100 86.745600 -26.121600 -1.442664 -2.474602 -4.573880 -1.240375 -2.556045 -23.203444 -0.000000 10.701906 -0.000000 4.174153 13.077828 -1.518768 0.000000 -0.570189 -0.000000 -0.000000 0.000000 0.000000 0.620228 -2.564397 24.425515 -0.000000 10.327019 -0.000000 -0.086532 13.301028 -3.819750 -0.000000 -1.880881 -0.000000 -0.000000 0.000000 -0.000000 2.044270 0.252590 0.326895 0.000000 2.680495 -0.000000 -0.000000 -0.000000 -0.000000 3.983961 0.000000 2.244825 91.530548 -7.811042 9.025034 0.000000 -12.277396 0.000000 -0.849710 7.547943 -17.112319 -0.000000 -0.000000 -0.000000 -5.615566 -0.000000 -1.282039 -90.872623 -10.964896 -12.048930 -0.000021 -7.793808 -0.000001 -1.536240 17.902825 22.378375 0.000000 0.000000 -0.000000 -0.000000 -0.000000 -0.000000 -2.798628 5.238326 3.161522 0.000000 0.000000 -0.000000 
67.256800 86.748300 -26.115500 -1.431376 -2.495615 -4.559871 -1.254276 -2.540691 -23.194064 0.000000 10.727214 -0.000000 4.184363 13.047421 -1.540052 -0.000000 -0.535638 -0.000000 -0.000000 0.000000 -0.000000 0.612962 -2.532567 24.483807 0.000000 10.314471 0.000000 -0.077356 13.306774 -3.873780 -0.000000 -1.816355 -0.000000 -0.000000 0.000000 0.000000 2.063240 0.255652 0.366681 0.000000 2.683021 -0.000000 0.000000 -0.000000 -0.000000 4.015392 -0.000000 2.218718 91.429269 -7.881994 8.997611 0.000000 -12.124632 -0.000000 -0.592268 7.561310 -16.921515 -0.000000 -0.000000 -0.000000 -5.689625 -0.000000 -1.257058 -90.787701 -10.967035 -12.058169 -0.000021 -7.688203 -0.000001 -1.310640 17.849996 22.122656 0.000000 0.000000 -0.000000 0.000000 -0.000000 -0.000000 -2.865269 5.205058 3.283194 0.000000 0.000000 0.000000 
67.255100 86.747800 -26.117700 -1.416454 -2.530043 -4.556133 -1.280008 -2.537056 -23.189864 -0.000000 10.787019 -0.000000 4.189365 13.028476 -1.545843 0.000000 -0.581751 -0.000000 0.000000 0.000000 -0.000000 0.603195 -2.499515 24.554937 0.000000 10.311117 -0.000000 -0.076340 13.337088 -3.962618 -0.000000 -1.873569 -0.000000 0.000000 0.000000 -0.000000 2.084144 0.281421 0.396074 0.000000 2.704572 -0.000000 -0.000000 -0.000000 -0.000000 4.010313 0.000000 2.191759 91.362792 -7.933367 8.929236 0.000000 -11.988100 -0.000000 -0.223543 7.551308 -16.760571 -0.000000 0.000000 -0.000000 -5.757601 -0.000000 -1.218777 -90.708282 -11.009414 -12.129909 -0.000020 -7.534292 -0.000001 -1.080358 17.895071 21.619262 -0.000000 0.000000 0.000000 -0.000000 -0.000000 -0.000000 -2.961567 5.129371 3.353573 -0.000000 -0.000000 0.000000 
67.253600 86.745200 -26.129200 -1.406322 -2.562205 -4.563666 -1.309046 -2.554567 -23.241474 -0.000000 10.876182 -0.000000 4.144198 12.984051 -1.501154 -0.000000 -0.542085 -0.000000 0.000000 -0.000000 -0.000000 0.600733 -2.489436 24.568925 -0.000000 10.342139 -0.000000 -0.092236 13.334143 -3.961625 -0.000000 -1.866388 -0.000000 0.000000 0.000000 -0.000000 2.114518 0.327268 0.423782 -0.000000 2.724597 -0.000000 -0.000000 0.000000 -0.000000 3.999765 -0.000000 2.174284 91.286114 -7.960876 8.938848 0.000000 -11.887837 -0.000000 0.302695 7.516522 -16.634927 -0.000000 -0.000000 -0.000000 -5.820140 -0.000000 -1.188652 -90.651255 -11.105018 -12.276975 -0.000019 -7.276893 -0.000001 -0.927911 17.814527 21.441402 0.000000 -0.000000 0.000000 -0.000000 0.000000 -0.000000 -3.064133 5.037314 3.402786 0.000000 -0.000000 0.000000 
67.248200 86.746100 -26.144100 -1.395377 -2.586266 -4.583826 -1.329576 -2.566926 -23.217020 0.000000 10.924473 -0.000000 4.151791 13.003393 -1.486829 -0.000000 -0.574218 -0.000000 -0.000000 0.000000 -0.000000 0.606919 -2.488768 24.653987 0.000000 10.376139 -0.000000 -0.087462 13.353315 -4.016693 -0.000000 -1.863007 0.000000 -0.000000 0.000000 -0.000000 2.134224 0.367283 0.467570 0.000000 2.732965 -0.000000 -0.000000 -0.000000 -0.000000 3.998698 -0.000000 2.156141 91.212862 -7.981342 8.931099 -0.000000 -11.848330 0.000000 0.749193 7.464316 -16.519774 -0.000000 -0.000000 -0.000000 -5.890507 -0.000000 -1.141064 -90.562561 -11.145385 -12.228832 -0.000019 -7.195441 -0.000001 -0.781527 17.902535 21.120054 -0.000000 0.000000 -0.000000 -0.000000 -0.000000 -0.000000 -3.130387 4.980150 3.388257 0.000000 0.000000 -0.000000 
67.239100 86.748200 -26.163000 -1.397534 -2.599558 -4.592036 -1.320103 -2.565654 -23.213239 -0.000000 10.921675 0.000000 4.153096 13.025284 -1.479384 -0.000000 -0.615889 -0.000000 0.000000 0.000000 0.000000 0.619941 -2.500415 24.639257 -0.000000 10.402768 0.000000 -0.131788 13.376748 -3.994404 0.000000 -1.882635 0.000000 -0.000000 0.000000 -0.000000 2.170278 0.399749 0.519262 0.000000 2.756060 -0.000000 -0.000000 0.000000 -0.000000 3.993004 0.000000 2.137575 91.152168 -8.005925 8.976415 0.000000 -11.850662 -0.000000 0.979078 7.394477 -16.501331 0.000000 0.000000 -0.000000 -5.958494 -0.000000 -1.137679 -90.491698 -11.158877 -12.220897 -0.000019 -7.170807 -0.000001 -0.578976 17.910990 20.926358 -0.000000 0.000000 -0.000000 -0.000000 0.000000 -0.000000 -3.156219 4.904984 3.380943 0.000000 0.000000 -0.000000 
67.229000 86.752700 -26.185900 -1.390223 -2.600155 -4.575664 -1.321109 -2.577627 -23.227465 -0.000000 10.919853 -0.000000 4.172342 13.025463 -1.486762 0.000000 -0.570388 0.000000 0.000000 0.000000 -0.000000 0.621930 -2.515770 24.650359 0.000000 10.398744 -0.000000 -0.102709 13.389939 -4.022786 0.000000 -1.838796 -0.000000 0.000000 0.000000 -0.000000 2.183877 0.432396 0.539618 -0.000000 2.762605 -0.000000 -0.000000 0.000000 -0.000000 3.995493 0.000000 2.130454 91.102543 -8.024037 8.958457 0.000000 -11.877361 -0.000000 1.095993 7.356161 -16.384988 -0.000000 0.000000 -0.000000 -6.008895 0.000000 -1.131685 -90.414747 -11.144778 -12.280388 -0.000019 -7.161195 -0.000001 -0.525614 17.727557 20.887495 -0.000000 0.000000 0.000000 -0.000000 0.000000 -0.000000 -3.133312 4.845157 3.359678 -0.000000 -0.000000 -0.000000 
67.220100 86.757500 -26.213000 -1.375615 -2.584076 -4.548513 -1.333713 -2.613518 -23.262166 0.000000 10.928749 0.000000 4.179234 13.058053 -1.471954 -0.000000 -0.582481 0.000000 0.000000 0.000000 -0.000000 0.617081 -2.542398 24.706747 -0.000000 10.375410 -0.000000 -0.080588 13.430950 -4.103873 -0.000000 -1.750527 -0.000000 0.000000 0.000000 0.000000 2.187505 0.459918 0.538486 0.000000 2.754533 -0.000000 0.000000 0.000000 -0.000000 3.995610 -0.000000 2.138936 91.059759 -8.060412 9.007948 0.000000 -11.855816 -0.000000 1.141098 7.394924 -16.288732 -0.000000 0.000000 0.000000 -6.035661 0.000000 -1.136989 -90.364185 -11.159938 -12.441141 -0.000019 -7.153720 -0.000001 -0.583499 17.686975 20.752892 0.000000 0.000000 -0.000000 0.000000 0.000000 -0.000000 -3.100558 4.827008 3.321289 0.000000 0.000000 -0.000000 
67.204800 86.762100 -26.247200 -1.372549 -2.561804 -4.508495 -1.321270 -2.646105 -23.340653 -0.000000 10.913784 -0.000000 4.109174 13.075427 -1.461126 0.000000 -0.474279 -0.000000 -0.000000 -0.000000 -0.000000 0.624164 -2.587061 24.635239 -0.000000 10.365619 0.000000 -0.080276 13.441105 -4.068443 -0.000000 -1.702410 0.000000 0.000000 0.000000 -0.000000 2.203721 0.490846 0.518169 0.000000 2.738756 0.000000 -0.000000 0.000000 -0.000000 3.994070 0.000000 2.134737 91.007290 -8.082765 9.000660 -0.000000 -11.821555 -0.000000 1.322511 7.521988 -16.194629 -0.000000 0.000000 0.000000 -6.057371 0.000000 -1.145315 -90.344677 -11.189622 -12.437342 -0.000019 -7.110061 -0.000001 -0.656506 17.718319 20.658296 0.000000 -0.000000 -0.000000 -0.000000 0.000000 -0.000000 -3.039399 4.765530 3.307334 -0.000000 0.000000 -0.000000 
